ffmpeg started on 2025-07-20 at 12:51:56
Report written to "D:\Convert\FFMetrics\reports\ssim_report-6.txt"
Log level: 32
Command line:
ffmpeg -hide_banner -nostdin -i "G:\\\xc0\xed\xe8\xec\xe5\\\xce\xed\xe3\xee\xe8\xed\xe3\xe8\\!_10_\xc2\xe5\xf1\xed\xe0_2018\\\xcf\xee\xf2\xe5\xf0\xff\xed\xed\xe0\xff \xef\xe5\xf1\xed\xff\\[SHIZA Project] Lost Song ONA [12] [MVO]_HEVC.mkv" -i "G:\\\xc0\xed\xe8\xec\xe5\\\xce\xed\xe3\xee\xe8\xed\xe3\xe8\\!_10_\xc2\xe5\xf1\xed\xe0_2018\\\xcf\xee\xf2\xe5\xf0\xff\xed\xed\xe0\xff \xef\xe5\xf1\xed\xff\\[SHIZA Project] Lost Song ONA [12] [MVO].mkv" -lavfi "[0:v]settb=AVTB,setpts=PTS-STARTPTS,format=pix_fmts=yuv420p10,fps=24000/1001,scale=1280:720:flags=bicubic[main];[1:v]settb=AVTB,setpts=PTS-STARTPTS,format=pix_fmts=yuv420p,fps=24000/1001,scale=1280:720:flags=bicubic[ref];[main][ref]ssim=eof_action=endall:stats_file='D\\:/Convert/FFMetrics/logs/ssim_logfile-6.txt'" -f null -
Input #0, matroska,webm, from 'G:\Аниме\Онгоинги\!_10_Весна_2018\Потерянная песня\[SHIZA Project] Lost Song ONA [12] [MVO]_HEVC.mkv':
  Metadata:
    ENCODER         : Lavf61.7.100
  Duration: 00:23:57.14, start: -0.021000, bitrate: 581 kb/s
  Stream #0:0(rus): Video: hevc (Main 10), yuv420p10le(tv, bt709, progressive), 1280x720 [SAR 1:1 DAR 16:9], 23.98 fps, 23.98 tbr, 1k tbn (default)
      Metadata:
        title           : www.SHIZA-Project.com
        ENCODER         : Lavc61.19.100 libx265
        BPS             : 385748
        DURATION        : 00:23:57.102708333
        NUMBER_OF_FRAMES: 34456
        NUMBER_OF_BYTES : 69295036
        _STATISTICS_WRITING_APP: mkvpropedit v66.0.0 ('Josie') 64-bit
        _STATISTICS_WRITING_DATE_UTC: 2025-07-19 14:03:06
        _STATISTICS_TAGS: BPS DURATION NUMBER_OF_FRAMES NUMBER_OF_BYTES
  Stream #0:1(rus): Audio: aac (LC), 48000 Hz, stereo, fltp (default)
      Metadata:
        title           : SHIZA Project MVO
        ENCODER         : Lavc61.19.100 aac
        BPS             : 191959
        DURATION        : 00:23:57.120000000
        NUMBER_OF_FRAMES: 67366
        NUMBER_OF_BYTES : 34483653
        _STATISTICS_WRITING_APP: mkvpropedit v66.0.0 ('Josie') 64-bit
        _STATISTICS_WRITING_DATE_UTC: 2025-07-19 14:03:06
        _STATISTICS_TAGS: BPS DURATION NUMBER_OF_FRAMES NUMBER_OF_BYTES
  Stream #0:2(rus): Subtitle: ass (ssa) (default)
      Metadata:
        BPS             : 43
        DURATION        : 00:22:55.400000000
        NUMBER_OF_FRAMES: 66
        NUMBER_OF_BYTES : 7396
        _STATISTICS_WRITING_APP: mkvpropedit v66.0.0 ('Josie') 64-bit
        _STATISTICS_WRITING_DATE_UTC: 2025-07-19 14:03:06
        _STATISTICS_TAGS: BPS DURATION NUMBER_OF_FRAMES NUMBER_OF_BYTES
Input #1, matroska,webm, from 'G:\Аниме\Онгоинги\!_10_Весна_2018\Потерянная песня\[SHIZA Project] Lost Song ONA [12] [MVO].mkv':
  Metadata:
    encoder         : libebml v1.3.1 + libmatroska v1.4.2
    creation_time   : 2018-07-23T22:07:48.000000Z
  Duration: 00:23:57.12, start: 0.000000, bitrate: 1587 kb/s
  Stream #1:0(rus): Video: h264 (Main), yuv420p(progressive), 1280x720 [SAR 1:1 DAR 16:9], 23.98 fps, 23.98 tbr, 1k tbn (default)
      Metadata:
        title           : www.SHIZA-Project.com
        BPS             : 1393318
        BPS-eng         : 1393318
        DURATION        : 00:23:57.103000000
        DURATION-eng    : 00:23:57.103000000
        NUMBER_OF_FRAMES: 34456
        NUMBER_OF_FRAMES-eng: 34456
        NUMBER_OF_BYTES : 250292807
        NUMBER_OF_BYTES-eng: 250292807
        _STATISTICS_WRITING_APP: mkvmerge v7.8.0 ('River Man') 32bit built on Mar 27 2015 16:18:02
        _STATISTICS_WRITING_APP-eng: mkvmerge v7.8.0 ('River Man') 32bit built on Mar 27 2015 16:18:02
        _STATISTICS_WRITING_DATE_UTC: 2018-07-23 22:07:48
        _STATISTICS_WRITING_DATE_UTC-eng: 2018-07-23 22:07:48
        _STATISTICS_TAGS: BPS DURATION NUMBER_OF_FRAMES NUMBER_OF_BYTES
        _STATISTICS_TAGS-eng: BPS DURATION NUMBER_OF_FRAMES NUMBER_OF_BYTES
  Stream #1:1(rus): Audio: aac (LC), 48000 Hz, stereo, fltp (default)
      Metadata:
        title           : SHIZA Project MVO
        BPS             : 192000
        BPS-eng         : 192000
        DURATION        : 00:23:57.120000000
        DURATION-eng    : 00:23:57.120000000
        NUMBER_OF_FRAMES: 67365
        NUMBER_OF_FRAMES-eng: 67365
        NUMBER_OF_BYTES : 34490881
        NUMBER_OF_BYTES-eng: 34490881
        _STATISTICS_WRITING_APP: mkvmerge v7.8.0 ('River Man') 32bit built on Mar 27 2015 16:18:02
        _STATISTICS_WRITING_APP-eng: mkvmerge v7.8.0 ('River Man') 32bit built on Mar 27 2015 16:18:02
        _STATISTICS_WRITING_DATE_UTC: 2018-07-23 22:07:48
        _STATISTICS_WRITING_DATE_UTC-eng: 2018-07-23 22:07:48
        _STATISTICS_TAGS: BPS DURATION NUMBER_OF_FRAMES NUMBER_OF_BYTES
        _STATISTICS_TAGS-eng: BPS DURATION NUMBER_OF_FRAMES NUMBER_OF_BYTES
  Stream #1:2(rus): Subtitle: ass (ssa) (default)
      Metadata:
        BPS             : 43
        BPS-eng         : 43
        DURATION        : 00:22:55.400000000
        DURATION-eng    : 00:22:55.400000000
        NUMBER_OF_FRAMES: 66
        NUMBER_OF_FRAMES-eng: 66
        NUMBER_OF_BYTES : 7396
        NUMBER_OF_BYTES-eng: 7396
        _STATISTICS_WRITING_APP: mkvmerge v7.8.0 ('River Man') 32bit built on Mar 27 2015 16:18:02
        _STATISTICS_WRITING_APP-eng: mkvmerge v7.8.0 ('River Man') 32bit built on Mar 27 2015 16:18:02
        _STATISTICS_WRITING_DATE_UTC: 2018-07-23 22:07:48
        _STATISTICS_WRITING_DATE_UTC-eng: 2018-07-23 22:07:48
        _STATISTICS_TAGS: BPS DURATION NUMBER_OF_FRAMES NUMBER_OF_BYTES
        _STATISTICS_TAGS-eng: BPS DURATION NUMBER_OF_FRAMES NUMBER_OF_BYTES
Stream mapping:
  Stream #0:0 (hevc) -> settb:default
  Stream #1:0 (h264) -> settb:default
  ssim:default -> Stream #0:0 (wrapped_avframe)
  Stream #0:1 -> #0:1 (aac (native) -> pcm_s16le (native))
[swscaler @ 000002451a4d7600] No accelerated colorspace conversion found from yuv420p to bgr48le.
[swscaler @ 000002451a676140] No accelerated colorspace conversion found from yuv420p to bgr48le.
[swscaler @ 000002451a7215c0] No accelerated colorspace conversion found from yuv420p to bgr48le.
[swscaler @ 000002451a7876c0] No accelerated colorspace conversion found from yuv420p to bgr48le.
[swscaler @ 000002451a7f69c0] No accelerated colorspace conversion found from yuv420p to bgr48le.
[swscaler @ 000002451a872680] No accelerated colorspace conversion found from yuv420p to bgr48le.
[swscaler @ 000002451a8e0780] No accelerated colorspace conversion found from yuv420p to bgr48le.
[swscaler @ 000002451a93c040] No accelerated colorspace conversion found from yuv420p to bgr48le.
[swscaler @ 000002451a9ab740] No accelerated colorspace conversion found from yuv420p to bgr48le.
[swscaler @ 000002451aa2f040] No accelerated colorspace conversion found from yuv420p to bgr48le.
[swscaler @ 000002451aaa1040] No accelerated colorspace conversion found from yuv420p to bgr48le.
[swscaler @ 000002451ab01840] No accelerated colorspace conversion found from yuv420p to bgr48le.
[swscaler @ 000002451ab5e040] No accelerated colorspace conversion found from yuv420p to bgr48le.
[swscaler @ 000002451abfc040] No accelerated colorspace conversion found from yuv420p to bgr48le.
[swscaler @ 000002451ac59040] No accelerated colorspace conversion found from yuv420p to bgr48le.
[swscaler @ 000002451ac8bd80] No accelerated colorspace conversion found from yuv420p to bgr48le.
Output #0, null, to 'pipe:':
  Metadata:
    encoder         : Lavf61.7.100
  Stream #0:0: Video: wrapped_avframe, yuv420p10le(tv, bt709, progressive), 1280x720 [SAR 1:1 DAR 16:9], q=2-31, 200 kb/s, 23.98 fps, 23.98 tbn
      Metadata:
        encoder         : Lavc61.19.100 wrapped_avframe
  Stream #0:1(rus): Audio: pcm_s16le, 48000 Hz, stereo, s16, 1536 kb/s (default)
      Metadata:
        title           : SHIZA Project MVO
        _STATISTICS_TAGS: BPS DURATION NUMBER_OF_FRAMES NUMBER_OF_BYTES
        BPS             : 191959
        DURATION        : 00:23:57.120000000
        NUMBER_OF_FRAMES: 67366
        NUMBER_OF_BYTES : 34483653
        _STATISTICS_WRITING_APP: mkvpropedit v66.0.0 ('Josie') 64-bit
        _STATISTICS_WRITING_DATE_UTC: 2025-07-19 14:03:06
        encoder         : Lavc61.19.100 pcm_s16le
frame=   80 fps=0.0 q=-0.0 size=N/A time=00:00:03.33 bitrate=N/A speed=6.44x    frame=  151 fps=146 q=-0.0 size=N/A time=00:00:06.29 bitrate=N/A speed=6.09x    frame=  258 fps=166 q=-0.0 size=N/A time=00:00:10.76 bitrate=N/A speed=6.92x    frame=  347 fps=168 q=-0.0 size=N/A time=00:00:14.47 bitrate=N/A speed=7.02x    frame=  439 fps=170 q=-0.0 size=N/A time=00:00:18.30 bitrate=N/A speed=7.09x    frame=  528 fps=171 q=-0.0 size=N/A time=00:00:22.02 bitrate=N/A speed=7.13x    frame=  623 fps=172 q=-0.0 size=N/A time=00:00:25.98 bitrate=N/A speed=7.19x    frame=  711 fps=173 q=-0.0 size=N/A time=00:00:29.65 bitrate=N/A speed= 7.2x    frame=  799 fps=172 q=-0.0 size=N/A time=00:00:33.32 bitrate=N/A speed=7.18x    frame=  894 fps=173 q=-0.0 size=N/A time=00:00:37.28 bitrate=N/A speed=7.22x    frame=  979 fps=173 q=-0.0 size=N/A time=00:00:40.83 bitrate=N/A speed= 7.2x    frame= 1079 fps=174 q=-0.0 size=N/A time=00:00:45.00 bitrate=N/A speed=7.27x    frame= 1170 fps=175 q=-0.0 size=N/A time=00:00:48.79 bitrate=N/A speed=7.28x    frame= 1256 fps=174 q=-0.0 size=N/A time=00:00:52.38 bitrate=N/A speed=7.25x    frame= 1357 fps=176 q=-0.0 size=N/A time=00:00:56.59 bitrate=N/A speed=7.32x    frame= 1442 fps=175 q=-0.0 size=N/A time=00:01:00.14 bitrate=N/A speed=7.29x    frame= 1543 fps=176 q=-0.0 size=N/A time=00:01:04.35 bitrate=N/A speed=7.34x    frame= 1634 fps=176 q=-0.0 size=N/A time=00:01:08.15 bitrate=N/A speed=7.35x    frame= 1719 fps=175 q=-0.0 size=N/A time=00:01:11.69 bitrate=N/A speed=7.32x    frame= 1820 fps=176 q=-0.0 size=N/A time=00:01:15.90 bitrate=N/A speed=7.36x    frame= 1907 fps=176 q=-0.0 size=N/A time=00:01:19.53 bitrate=N/A speed=7.34x    frame= 2003 fps=177 q=-0.0 size=N/A time=00:01:23.54 bitrate=N/A speed=7.36x    frame= 2099 fps=177 q=-0.0 size=N/A time=00:01:27.54 bitrate=N/A speed=7.38x    frame= 2194 fps=177 q=-0.0 size=N/A time=00:01:31.50 bitrate=N/A speed=7.39x    frame= 2286 fps=177 q=-0.0 size=N/A time=00:01:35.34 bitrate=N/A speed= 7.4x    frame= 2378 fps=177 q=-0.0 size=N/A time=00:01:39.18 bitrate=N/A speed= 7.4x    frame= 2462 fps=177 q=-0.0 size=N/A time=00:01:42.68 bitrate=N/A speed=7.37x    frame= 2560 fps=177 q=-0.0 size=N/A time=00:01:46.77 bitrate=N/A speed= 7.4x    frame= 2654 fps=177 q=-0.0 size=N/A time=00:01:50.69 bitrate=N/A speed= 7.4x    frame= 2747 fps=178 q=-0.0 size=N/A time=00:01:54.57 bitrate=N/A speed=7.41x    frame= 2838 fps=178 q=-0.0 size=N/A time=00:01:58.36 bitrate=N/A speed= 7.4x    frame= 2926 fps=177 q=-0.0 size=N/A time=00:02:02.03 bitrate=N/A speed= 7.4x    frame= 3026 fps=178 q=-0.0 size=N/A time=00:02:06.20 bitrate=N/A speed=7.42x    frame= 3120 fps=178 q=-0.0 size=N/A time=00:02:10.13 bitrate=N/A speed=7.42x    frame= 3200 fps=177 q=-0.0 size=N/A time=00:02:13.46 bitrate=N/A speed=7.39x    frame= 3296 fps=178 q=-0.0 size=N/A time=00:02:17.47 bitrate=N/A speed=7.41x    frame= 3387 fps=178 q=-0.0 size=N/A time=00:02:21.26 bitrate=N/A speed= 7.4x    frame= 3477 fps=177 q=-0.0 size=N/A time=00:02:25.01 bitrate=N/A speed= 7.4x    frame= 3572 fps=178 q=-0.0 size=N/A time=00:02:28.98 bitrate=N/A speed=7.41x    frame= 3659 fps=177 q=-0.0 size=N/A time=00:02:32.61 bitrate=N/A speed= 7.4x    frame= 3749 fps=177 q=-0.0 size=N/A time=00:02:36.36 bitrate=N/A speed= 7.4x    frame= 3837 fps=177 q=-0.0 size=N/A time=00:02:40.03 bitrate=N/A speed=7.39x    frame= 3918 fps=177 q=-0.0 size=N/A time=00:02:43.41 bitrate=N/A speed=7.37x    frame= 4004 fps=176 q=-0.0 size=N/A time=00:02:47.00 bitrate=N/A speed=7.36x    frame= 4093 fps=176 q=-0.0 size=N/A time=00:02:50.71 bitrate=N/A speed=7.36x    frame= 4172 fps=176 q=-0.0 size=N/A time=00:02:54.00 bitrate=N/A speed=7.34x    frame= 4267 fps=176 q=-0.0 size=N/A time=00:02:57.96 bitrate=N/A speed=7.34x    frame= 4351 fps=176 q=-0.0 size=N/A time=00:03:01.47 bitrate=N/A speed=7.33x    frame= 4450 fps=176 q=-0.0 size=N/A time=00:03:05.60 bitrate=N/A speed=7.35x    frame= 4543 fps=176 q=-0.0 size=N/A time=00:03:09.48 bitrate=N/A speed=7.35x    frame= 4632 fps=176 q=-0.0 size=N/A time=00:03:13.19 bitrate=N/A speed=7.35x    frame= 4728 fps=176 q=-0.0 size=N/A time=00:03:17.19 bitrate=N/A speed=7.35x    frame= 4809 fps=176 q=-0.0 size=N/A time=00:03:20.57 bitrate=N/A speed=7.34x    frame= 4915 fps=176 q=-0.0 size=N/A time=00:03:24.99 bitrate=N/A speed=7.36x    frame= 5005 fps=176 q=-0.0 size=N/A time=00:03:28.75 bitrate=N/A speed=7.36x    frame= 5101 fps=177 q=-0.0 size=N/A time=00:03:32.75 bitrate=N/A speed=7.37x    frame= 5191 fps=177 q=-0.0 size=N/A time=00:03:36.50 bitrate=N/A speed=7.36x    frame= 5285 fps=177 q=-0.0 size=N/A time=00:03:40.42 bitrate=N/A speed=7.37x    frame= 5374 fps=177 q=-0.0 size=N/A time=00:03:44.14 bitrate=N/A speed=7.37x    frame= 5471 fps=177 q=-0.0 size=N/A time=00:03:48.18 bitrate=N/A speed=7.37x    frame= 5563 fps=177 q=-0.0 size=N/A time=00:03:52.02 bitrate=N/A speed=7.38x    frame= 5657 fps=177 q=-0.0 size=N/A time=00:03:55.94 bitrate=N/A speed=7.38x    frame= 5748 fps=177 q=-0.0 size=N/A time=00:03:59.73 bitrate=N/A speed=7.38x    frame= 5841 fps=177 q=-0.0 size=N/A time=00:04:03.61 bitrate=N/A speed=7.38x    frame= 5934 fps=177 q=-0.0 size=N/A time=00:04:07.49 bitrate=N/A speed=7.39x    frame= 6015 fps=177 q=-0.0 size=N/A time=00:04:10.87 bitrate=N/A speed=7.37x    frame= 6122 fps=177 q=-0.0 size=N/A time=00:04:15.33 bitrate=N/A speed=7.39x    frame= 6216 fps=177 q=-0.0 size=N/A time=00:04:19.25 bitrate=N/A speed=7.39x    frame= 6310 fps=177 q=-0.0 size=N/A time=00:04:23.17 bitrate=N/A speed= 7.4x    frame= 6404 fps=177 q=-0.0 size=N/A time=00:04:27.10 bitrate=N/A speed= 7.4x    frame= 6494 fps=177 q=-0.0 size=N/A time=00:04:30.85 bitrate=N/A speed= 7.4x    frame= 6572 fps=177 q=-0.0 size=N/A time=00:04:34.10 bitrate=N/A speed=7.38x    frame= 6678 fps=177 q=-0.0 size=N/A time=00:04:38.52 bitrate=N/A speed= 7.4x    frame= 6770 fps=177 q=-0.0 size=N/A time=00:04:42.36 bitrate=N/A speed= 7.4x    frame= 6864 fps=177 q=-0.0 size=N/A time=00:04:46.28 bitrate=N/A speed= 7.4x    frame= 6957 fps=178 q=-0.0 size=N/A time=00:04:50.16 bitrate=N/A speed= 7.4x    frame= 7043 fps=177 q=-0.0 size=N/A time=00:04:53.75 bitrate=N/A speed= 7.4x    frame= 7141 fps=178 q=-0.0 size=N/A time=00:04:57.83 bitrate=N/A speed= 7.4x    frame= 7226 fps=177 q=-0.0 size=N/A time=00:05:01.38 bitrate=N/A speed= 7.4x    frame= 7330 fps=178 q=-0.0 size=N/A time=00:05:05.72 bitrate=N/A speed=7.41x    frame= 7422 fps=178 q=-0.0 size=N/A time=00:05:09.55 bitrate=N/A speed=7.41x    frame= 7511 fps=178 q=-0.0 size=N/A time=00:05:13.27 bitrate=N/A speed=7.41x    frame= 7596 fps=177 q=-0.0 size=N/A time=00:05:16.81 bitrate=N/A speed= 7.4x    frame= 7688 fps=177 q=-0.0 size=N/A time=00:05:20.65 bitrate=N/A speed= 7.4x    frame= 7785 fps=178 q=-0.0 size=N/A time=00:05:24.69 bitrate=N/A speed=7.41x    frame= 7877 fps=178 q=-0.0 size=N/A time=00:05:28.53 bitrate=N/A speed=7.41x    frame= 7974 fps=178 q=-0.0 size=N/A time=00:05:32.58 bitrate=N/A speed=7.41x    frame= 8065 fps=178 q=-0.0 size=N/A time=00:05:36.37 bitrate=N/A speed=7.41x    frame= 8163 fps=178 q=-0.0 size=N/A time=00:05:40.46 bitrate=N/A speed=7.42x    frame= 8249 fps=178 q=-0.0 size=N/A time=00:05:44.05 bitrate=N/A speed=7.41x    frame= 8345 fps=178 q=-0.0 size=N/A time=00:05:48.05 bitrate=N/A speed=7.42x    frame= 8439 fps=178 q=-0.0 size=N/A time=00:05:51.97 bitrate=N/A speed=7.42x    frame= 8536 fps=178 q=-0.0 size=N/A time=00:05:56.02 bitrate=N/A speed=7.42x    frame= 8619 fps=178 q=-0.0 size=N/A time=00:05:59.48 bitrate=N/A speed=7.42x    frame= 8721 fps=178 q=-0.0 size=N/A time=00:06:03.73 bitrate=N/A speed=7.43x    frame= 8813 fps=178 q=-0.0 size=N/A time=00:06:07.57 bitrate=N/A speed=7.43x    frame= 8911 fps=178 q=-0.0 size=N/A time=00:06:11.66 bitrate=N/A speed=7.43x    frame= 8997 fps=178 q=-0.0 size=N/A time=00:06:15.24 bitrate=N/A speed=7.43x    frame= 9093 fps=178 q=-0.0 size=N/A time=00:06:19.25 bitrate=N/A speed=7.43x    frame= 9183 fps=178 q=-0.0 size=N/A time=00:06:23.00 bitrate=N/A speed=7.43x    frame= 9267 fps=178 q=-0.0 size=N/A time=00:06:26.51 bitrate=N/A speed=7.42x    frame= 9369 fps=178 q=-0.0 size=N/A time=00:06:30.76 bitrate=N/A speed=7.43x    frame= 9457 fps=178 q=-0.0 size=N/A time=00:06:34.43 bitrate=N/A speed=7.43x    frame= 9549 fps=178 q=-0.0 size=N/A time=00:06:38.27 bitrate=N/A speed=7.43x    frame= 9638 fps=178 q=-0.0 size=N/A time=00:06:41.98 bitrate=N/A speed=7.42x    frame= 9734 fps=178 q=-0.0 size=N/A time=00:06:45.98 bitrate=N/A speed=7.43x    frame= 9825 fps=178 q=-0.0 size=N/A time=00:06:49.78 bitrate=N/A speed=7.43x    frame= 9919 fps=178 q=-0.0 size=N/A time=00:06:53.70 bitrate=N/A speed=7.43x    frame=10015 fps=178 q=-0.0 size=N/A time=00:06:57.70 bitrate=N/A speed=7.43x    frame=10106 fps=178 q=-0.0 size=N/A time=00:07:01.50 bitrate=N/A speed=7.43x    frame=10202 fps=178 q=-0.0 size=N/A time=00:07:05.50 bitrate=N/A speed=7.43x    frame=10289 fps=178 q=-0.0 size=N/A time=00:07:09.13 bitrate=N/A speed=7.43x    frame=10387 fps=178 q=-0.0 size=N/A time=00:07:13.22 bitrate=N/A speed=7.43x    frame=10475 fps=178 q=-0.0 size=N/A time=00:07:16.89 bitrate=N/A speed=7.43x    frame=10567 fps=178 q=-0.0 size=N/A time=00:07:20.73 bitrate=N/A speed=7.43x    frame=10657 fps=178 q=-0.0 size=N/A time=00:07:24.48 bitrate=N/A speed=7.43x    frame=10745 fps=178 q=-0.0 size=N/A time=00:07:28.15 bitrate=N/A speed=7.43x    frame=10839 fps=178 q=-0.0 size=N/A time=00:07:32.07 bitrate=N/A speed=7.43x    frame=10930 fps=178 q=-0.0 size=N/A time=00:07:35.87 bitrate=N/A speed=7.43x    frame=11018 fps=178 q=-0.0 size=N/A time=00:07:39.54 bitrate=N/A speed=7.43x    frame=11113 fps=178 q=-0.0 size=N/A time=00:07:43.50 bitrate=N/A speed=7.43x    frame=11210 fps=178 q=-0.0 size=N/A time=00:07:47.55 bitrate=N/A speed=7.43x    frame=11298 fps=178 q=-0.0 size=N/A time=00:07:51.22 bitrate=N/A speed=7.43x    frame=11394 fps=178 q=-0.0 size=N/A time=00:07:55.22 bitrate=N/A speed=7.43x    frame=11487 fps=178 q=-0.0 size=N/A time=00:07:59.10 bitrate=N/A speed=7.43x    frame=11580 fps=178 q=-0.0 size=N/A time=00:08:02.98 bitrate=N/A speed=7.43x    frame=11671 fps=178 q=-0.0 size=N/A time=00:08:06.77 bitrate=N/A speed=7.43x    frame=11769 fps=178 q=-0.0 size=N/A time=00:08:10.86 bitrate=N/A speed=7.44x    frame=11863 fps=178 q=-0.0 size=N/A time=00:08:14.78 bitrate=N/A speed=7.44x    frame=11952 fps=178 q=-0.0 size=N/A time=00:08:18.49 bitrate=N/A speed=7.43x    frame=12042 fps=178 q=-0.0 size=N/A time=00:08:22.25 bitrate=N/A speed=7.43x    frame=12139 fps=178 q=-0.0 size=N/A time=00:08:26.29 bitrate=N/A speed=7.44x    frame=12231 fps=178 q=-0.0 size=N/A time=00:08:30.13 bitrate=N/A speed=7.44x    frame=12325 fps=178 q=-0.0 size=N/A time=00:08:34.05 bitrate=N/A speed=7.44x    frame=12417 fps=178 q=-0.0 size=N/A time=00:08:37.89 bitrate=N/A speed=7.44x    frame=12509 fps=178 q=-0.0 size=N/A time=00:08:41.72 bitrate=N/A speed=7.44x    frame=12595 fps=178 q=-0.0 size=N/A time=00:08:45.31 bitrate=N/A speed=7.43x    frame=12694 fps=178 q=-0.0 size=N/A time=00:08:49.44 bitrate=N/A speed=7.44x    frame=12788 fps=178 q=-0.0 size=N/A time=00:08:53.36 bitrate=N/A speed=7.44x    frame=12880 fps=178 q=-0.0 size=N/A time=00:08:57.20 bitrate=N/A speed=7.44x    frame=12973 fps=178 q=-0.0 size=N/A time=00:09:01.08 bitrate=N/A speed=7.44x    frame=13067 fps=178 q=-0.0 size=N/A time=00:09:05.00 bitrate=N/A speed=7.44x    frame=13159 fps=178 q=-0.0 size=N/A time=00:09:08.83 bitrate=N/A speed=7.44x    frame=13251 fps=178 q=-0.0 size=N/A time=00:09:12.67 bitrate=N/A speed=7.44x    frame=13338 fps=178 q=-0.0 size=N/A time=00:09:16.30 bitrate=N/A speed=7.44x    frame=13437 fps=178 q=-0.0 size=N/A time=00:09:20.43 bitrate=N/A speed=7.44x    frame=13527 fps=178 q=-0.0 size=N/A time=00:09:24.18 bitrate=N/A speed=7.44x    frame=13621 fps=178 q=-0.0 size=N/A time=00:09:28.10 bitrate=N/A speed=7.44x    frame=13712 fps=178 q=-0.0 size=N/A time=00:09:31.90 bitrate=N/A speed=7.44x    frame=13805 fps=178 q=-0.0 size=N/A time=00:09:35.78 bitrate=N/A speed=7.44x    frame=13896 fps=178 q=-0.0 size=N/A time=00:09:39.57 bitrate=N/A speed=7.44x    frame=13989 fps=178 q=-0.0 size=N/A time=00:09:43.45 bitrate=N/A speed=7.44x    frame=14070 fps=178 q=-0.0 size=N/A time=00:09:46.83 bitrate=N/A speed=7.44x    frame=14166 fps=178 q=-0.0 size=N/A time=00:09:50.84 bitrate=N/A speed=7.44x    frame=14264 fps=178 q=-0.0 size=N/A time=00:09:54.92 bitrate=N/A speed=7.44x    frame=14358 fps=178 q=-0.0 size=N/A time=00:09:58.84 bitrate=N/A speed=7.44x    frame=14453 fps=179 q=-0.0 size=N/A time=00:10:02.81 bitrate=N/A speed=7.44x    frame=14549 fps=179 q=-0.0 size=N/A time=00:10:06.81 bitrate=N/A speed=7.45x    frame=14639 fps=179 q=-0.0 size=N/A time=00:10:10.56 bitrate=N/A speed=7.45x    frame=14732 fps=179 q=-0.0 size=N/A time=00:10:14.44 bitrate=N/A speed=7.45x    frame=14823 fps=179 q=-0.0 size=N/A time=00:10:18.24 bitrate=N/A speed=7.45x    frame=14919 fps=179 q=-0.0 size=N/A time=00:10:22.24 bitrate=N/A speed=7.45x    frame=15012 fps=179 q=-0.0 size=N/A time=00:10:26.12 bitrate=N/A speed=7.45x    frame=15103 fps=179 q=-0.0 size=N/A time=00:10:29.92 bitrate=N/A speed=7.45x    frame=15184 fps=178 q=-0.0 size=N/A time=00:10:33.29 bitrate=N/A speed=7.44x    frame=15289 fps=179 q=-0.0 size=N/A time=00:10:37.67 bitrate=N/A speed=7.45x    frame=15383 fps=179 q=-0.0 size=N/A time=00:10:41.59 bitrate=N/A speed=7.45x    frame=15473 fps=179 q=-0.0 size=N/A time=00:10:45.35 bitrate=N/A speed=7.45x    frame=15563 fps=179 q=-0.0 size=N/A time=00:10:49.10 bitrate=N/A speed=7.45x    frame=15652 fps=179 q=-0.0 size=N/A time=00:10:52.81 bitrate=N/A speed=7.45x    frame=15751 fps=179 q=-0.0 size=N/A time=00:10:56.94 bitrate=N/A speed=7.45x    frame=15841 fps=179 q=-0.0 size=N/A time=00:11:00.70 bitrate=N/A speed=7.45x    frame=15939 fps=179 q=-0.0 size=N/A time=00:11:04.78 bitrate=N/A speed=7.45x    frame=16033 fps=179 q=-0.0 size=N/A time=00:11:08.70 bitrate=N/A speed=7.45x    frame=16123 fps=179 q=-0.0 size=N/A time=00:11:12.46 bitrate=N/A speed=7.45x    frame=16218 fps=179 q=-0.0 size=N/A time=00:11:16.42 bitrate=N/A speed=7.45x    frame=16306 fps=179 q=-0.0 size=N/A time=00:11:20.09 bitrate=N/A speed=7.45x    frame=16396 fps=179 q=-0.0 size=N/A time=00:11:23.84 bitrate=N/A speed=7.45x    frame=16499 fps=179 q=-0.0 size=N/A time=00:11:28.14 bitrate=N/A speed=7.45x    frame=16589 fps=179 q=-0.0 size=N/A time=00:11:31.89 bitrate=N/A speed=7.45x    frame=16684 fps=179 q=-0.0 size=N/A time=00:11:35.86 bitrate=N/A speed=7.45x    frame=16773 fps=179 q=-0.0 size=N/A time=00:11:39.57 bitrate=N/A speed=7.45x    frame=16863 fps=179 q=-0.0 size=N/A time=00:11:43.32 bitrate=N/A speed=7.45x    frame=16965 fps=179 q=-0.0 size=N/A time=00:11:47.58 bitrate=N/A speed=7.46x    frame=17058 fps=179 q=-0.0 size=N/A time=00:11:51.46 bitrate=N/A speed=7.46x    frame=17153 fps=179 q=-0.0 size=N/A time=00:11:55.42 bitrate=N/A speed=7.46x    frame=17239 fps=179 q=-0.0 size=N/A time=00:11:59.00 bitrate=N/A speed=7.46x    frame=17337 fps=179 q=-0.0 size=N/A time=00:12:03.09 bitrate=N/A speed=7.46x    frame=17430 fps=179 q=-0.0 size=N/A time=00:12:06.97 bitrate=N/A speed=7.46x    frame=17522 fps=179 q=-0.0 size=N/A time=00:12:10.81 bitrate=N/A speed=7.46x    frame=17616 fps=179 q=-0.0 size=N/A time=00:12:14.73 bitrate=N/A speed=7.46x    frame=17707 fps=179 q=-0.0 size=N/A time=00:12:18.52 bitrate=N/A speed=7.46x    frame=17803 fps=179 q=-0.0 size=N/A time=00:12:22.53 bitrate=N/A speed=7.46x    frame=17897 fps=179 q=-0.0 size=N/A time=00:12:26.45 bitrate=N/A speed=7.46x    frame=17989 fps=179 q=-0.0 size=N/A time=00:12:30.29 bitrate=N/A speed=7.46x    frame=18077 fps=179 q=-0.0 size=N/A time=00:12:33.96 bitrate=N/A speed=7.46x    frame=18165 fps=179 q=-0.0 size=N/A time=00:12:37.63 bitrate=N/A speed=7.46x    frame=18252 fps=179 q=-0.0 size=N/A time=00:12:41.26 bitrate=N/A speed=7.45x    frame=18333 fps=179 q=-0.0 size=N/A time=00:12:44.63 bitrate=N/A speed=7.45x    frame=18426 fps=179 q=-0.0 size=N/A time=00:12:48.51 bitrate=N/A speed=7.45x    frame=18509 fps=179 q=-0.0 size=N/A time=00:12:51.97 bitrate=N/A speed=7.45x    frame=18610 fps=179 q=-0.0 size=N/A time=00:12:56.19 bitrate=N/A speed=7.45x    frame=18688 fps=179 q=-0.0 size=N/A time=00:12:59.44 bitrate=N/A speed=7.45x    frame=18795 fps=179 q=-0.0 size=N/A time=00:13:03.90 bitrate=N/A speed=7.45x    frame=18886 fps=179 q=-0.0 size=N/A time=00:13:07.70 bitrate=N/A speed=7.45x    frame=18981 fps=179 q=-0.0 size=N/A time=00:13:11.66 bitrate=N/A speed=7.45x    frame=19072 fps=179 q=-0.0 size=N/A time=00:13:15.46 bitrate=N/A speed=7.45x    frame=19166 fps=179 q=-0.0 size=N/A time=00:13:19.38 bitrate=N/A speed=7.45x    frame=19257 fps=179 q=-0.0 size=N/A time=00:13:23.17 bitrate=N/A speed=7.45x    frame=19345 fps=179 q=-0.0 size=N/A time=00:13:26.84 bitrate=N/A speed=7.45x    frame=19444 fps=179 q=-0.0 size=N/A time=00:13:30.97 bitrate=N/A speed=7.45x    frame=19536 fps=179 q=-0.0 size=N/A time=00:13:34.81 bitrate=N/A speed=7.45x    frame=19631 fps=179 q=-0.0 size=N/A time=00:13:38.77 bitrate=N/A speed=7.45x    frame=19719 fps=179 q=-0.0 size=N/A time=00:13:42.44 bitrate=N/A speed=7.45x    frame=19808 fps=179 q=-0.0 size=N/A time=00:13:46.15 bitrate=N/A speed=7.45x    frame=19895 fps=179 q=-0.0 size=N/A time=00:13:49.78 bitrate=N/A speed=7.45x    frame=19981 fps=179 q=-0.0 size=N/A time=00:13:53.37 bitrate=N/A speed=7.45x    frame=20071 fps=179 q=-0.0 size=N/A time=00:13:57.12 bitrate=N/A speed=7.45x    frame=20146 fps=178 q=-0.0 size=N/A time=00:14:00.25 bitrate=N/A speed=7.44x    frame=20241 fps=178 q=-0.0 size=N/A time=00:14:04.21 bitrate=N/A speed=7.44x    frame=20326 fps=178 q=-0.0 size=N/A time=00:14:07.76 bitrate=N/A speed=7.44x    frame=20406 fps=178 q=-0.0 size=N/A time=00:14:11.10 bitrate=N/A speed=7.43x    frame=20503 fps=178 q=-0.0 size=N/A time=00:14:15.14 bitrate=N/A speed=7.44x    frame=20584 fps=178 q=-0.0 size=N/A time=00:14:18.52 bitrate=N/A speed=7.43x    frame=20683 fps=178 q=-0.0 size=N/A time=00:14:22.65 bitrate=N/A speed=7.43x    frame=20769 fps=178 q=-0.0 size=N/A time=00:14:26.24 bitrate=N/A speed=7.43x    frame=20854 fps=178 q=-0.0 size=N/A time=00:14:29.78 bitrate=N/A speed=7.43x    frame=20943 fps=178 q=-0.0 size=N/A time=00:14:33.49 bitrate=N/A speed=7.43x    frame=21036 fps=178 q=-0.0 size=N/A time=00:14:37.37 bitrate=N/A speed=7.43x    frame=21135 fps=178 q=-0.0 size=N/A time=00:14:41.50 bitrate=N/A speed=7.43x    frame=21225 fps=178 q=-0.0 size=N/A time=00:14:45.25 bitrate=N/A speed=7.43x    frame=21313 fps=178 q=-0.0 size=N/A time=00:14:48.92 bitrate=N/A speed=7.43x    frame=21403 fps=178 q=-0.0 size=N/A time=00:14:52.68 bitrate=N/A speed=7.43x    frame=21499 fps=178 q=-0.0 size=N/A time=00:14:56.68 bitrate=N/A speed=7.43x    frame=21594 fps=178 q=-0.0 size=N/A time=00:15:00.64 bitrate=N/A speed=7.43x    frame=21685 fps=178 q=-0.0 size=N/A time=00:15:04.44 bitrate=N/A speed=7.43x    frame=21779 fps=178 q=-0.0 size=N/A time=00:15:08.36 bitrate=N/A speed=7.43x    frame=21873 fps=178 q=-0.0 size=N/A time=00:15:12.28 bitrate=N/A speed=7.43x    frame=21968 fps=178 q=-0.0 size=N/A time=00:15:16.24 bitrate=N/A speed=7.43x    frame=22053 fps=178 q=-0.0 size=N/A time=00:15:19.79 bitrate=N/A speed=7.43x    frame=22157 fps=178 q=-0.0 size=N/A time=00:15:24.13 bitrate=N/A speed=7.44x    frame=22247 fps=178 q=-0.0 size=N/A time=00:15:27.88 bitrate=N/A speed=7.44x    frame=22338 fps=178 q=-0.0 size=N/A time=00:15:31.68 bitrate=N/A speed=7.43x    frame=22438 fps=178 q=-0.0 size=N/A time=00:15:35.85 bitrate=N/A speed=7.44x    frame=22529 fps=178 q=-0.0 size=N/A time=00:15:39.64 bitrate=N/A speed=7.44x    frame=22625 fps=178 q=-0.0 size=N/A time=00:15:43.65 bitrate=N/A speed=7.44x    frame=22721 fps=178 q=-0.0 size=N/A time=00:15:47.65 bitrate=N/A speed=7.44x    frame=22818 fps=178 q=-0.0 size=N/A time=00:15:51.70 bitrate=N/A speed=7.44x    frame=22917 fps=178 q=-0.0 size=N/A time=00:15:55.82 bitrate=N/A speed=7.44x    frame=23020 fps=179 q=-0.0 size=N/A time=00:16:00.12 bitrate=N/A speed=7.45x    frame=23117 fps=179 q=-0.0 size=N/A time=00:16:04.17 bitrate=N/A speed=7.45x    frame=23216 fps=179 q=-0.0 size=N/A time=00:16:08.30 bitrate=N/A speed=7.45x    frame=23315 fps=179 q=-0.0 size=N/A time=00:16:12.42 bitrate=N/A speed=7.45x    frame=23405 fps=179 q=-0.0 size=N/A time=00:16:16.18 bitrate=N/A speed=7.45x    frame=23510 fps=179 q=-0.0 size=N/A time=00:16:20.56 bitrate=N/A speed=7.46x    frame=23618 fps=179 q=-0.0 size=N/A time=00:16:25.06 bitrate=N/A speed=7.46x    frame=23712 fps=179 q=-0.0 size=N/A time=00:16:28.98 bitrate=N/A speed=7.46x    frame=23810 fps=179 q=-0.0 size=N/A time=00:16:33.07 bitrate=N/A speed=7.46x    frame=23908 fps=179 q=-0.0 size=N/A time=00:16:37.16 bitrate=N/A speed=7.47x    frame=24004 fps=179 q=-0.0 size=N/A time=00:16:41.16 bitrate=N/A speed=7.47x    frame=24110 fps=179 q=-0.0 size=N/A time=00:16:45.58 bitrate=N/A speed=7.47x    frame=24210 fps=179 q=-0.0 size=N/A time=00:16:49.75 bitrate=N/A speed=7.47x    frame=24305 fps=179 q=-0.0 size=N/A time=00:16:53.72 bitrate=N/A speed=7.47x    frame=24413 fps=179 q=-0.0 size=N/A time=00:16:58.22 bitrate=N/A speed=7.48x    frame=24512 fps=179 q=-0.0 size=N/A time=00:17:02.35 bitrate=N/A speed=7.48x    frame=24606 fps=179 q=-0.0 size=N/A time=00:17:06.27 bitrate=N/A speed=7.48x    frame=24697 fps=179 q=-0.0 size=N/A time=00:17:10.07 bitrate=N/A speed=7.48x    frame=24790 fps=179 q=-0.0 size=N/A time=00:17:13.94 bitrate=N/A speed=7.48x    frame=24895 fps=179 q=-0.0 size=N/A time=00:17:18.32 bitrate=N/A speed=7.49x    frame=24999 fps=180 q=-0.0 size=N/A time=00:17:22.66 bitrate=N/A speed=7.49x    frame=25099 fps=180 q=-0.0 size=N/A time=00:17:26.83 bitrate=N/A speed=7.49x    frame=25199 fps=180 q=-0.0 size=N/A time=00:17:31.00 bitrate=N/A speed=7.49x    frame=25300 fps=180 q=-0.0 size=N/A time=00:17:35.22 bitrate=N/A speed= 7.5x    frame=25399 fps=180 q=-0.0 size=N/A time=00:17:39.34 bitrate=N/A speed= 7.5x    frame=25499 fps=180 q=-0.0 size=N/A time=00:17:43.52 bitrate=N/A speed= 7.5x    frame=25601 fps=180 q=-0.0 size=N/A time=00:17:47.77 bitrate=N/A speed= 7.5x    frame=25694 fps=180 q=-0.0 size=N/A time=00:17:51.65 bitrate=N/A speed= 7.5x    frame=25799 fps=180 q=-0.0 size=N/A time=00:17:56.03 bitrate=N/A speed=7.51x    frame=25897 fps=180 q=-0.0 size=N/A time=00:18:00.12 bitrate=N/A speed=7.51x    frame=25999 fps=180 q=-0.0 size=N/A time=00:18:04.37 bitrate=N/A speed=7.51x    frame=26100 fps=180 q=-0.0 size=N/A time=00:18:08.58 bitrate=N/A speed=7.51x    frame=26198 fps=180 q=-0.0 size=N/A time=00:18:12.67 bitrate=N/A speed=7.51x    frame=26292 fps=180 q=-0.0 size=N/A time=00:18:16.59 bitrate=N/A speed=7.51x    frame=26393 fps=180 q=-0.0 size=N/A time=00:18:20.80 bitrate=N/A speed=7.52x    frame=26481 fps=180 q=-0.0 size=N/A time=00:18:24.47 bitrate=N/A speed=7.51x    frame=26587 fps=180 q=-0.0 size=N/A time=00:18:28.89 bitrate=N/A speed=7.52x    frame=26684 fps=180 q=-0.0 size=N/A time=00:18:32.94 bitrate=N/A speed=7.52x    frame=26780 fps=180 q=-0.0 size=N/A time=00:18:36.94 bitrate=N/A speed=7.52x    frame=26879 fps=180 q=-0.0 size=N/A time=00:18:41.07 bitrate=N/A speed=7.52x    frame=26975 fps=180 q=-0.0 size=N/A time=00:18:45.08 bitrate=N/A speed=7.52x    frame=27073 fps=180 q=-0.0 size=N/A time=00:18:49.16 bitrate=N/A speed=7.52x    frame=27171 fps=180 q=-0.0 size=N/A time=00:18:53.25 bitrate=N/A speed=7.52x    frame=27273 fps=180 q=-0.0 size=N/A time=00:18:57.51 bitrate=N/A speed=7.53x    frame=27368 fps=180 q=-0.0 size=N/A time=00:19:01.47 bitrate=N/A speed=7.53x    frame=27458 fps=180 q=-0.0 size=N/A time=00:19:05.22 bitrate=N/A speed=7.53x    frame=27551 fps=180 q=-0.0 size=N/A time=00:19:09.10 bitrate=N/A speed=7.53x    frame=27648 fps=180 q=-0.0 size=N/A time=00:19:13.15 bitrate=N/A speed=7.53x    frame=27729 fps=180 q=-0.0 size=N/A time=00:19:16.53 bitrate=N/A speed=7.52x    frame=27828 fps=180 q=-0.0 size=N/A time=00:19:20.65 bitrate=N/A speed=7.53x    frame=27931 fps=181 q=-0.0 size=N/A time=00:19:24.95 bitrate=N/A speed=7.53x    frame=28035 fps=181 q=-0.0 size=N/A time=00:19:29.29 bitrate=N/A speed=7.53x    frame=28131 fps=181 q=-0.0 size=N/A time=00:19:33.29 bitrate=N/A speed=7.53x    frame=28226 fps=181 q=-0.0 size=N/A time=00:19:37.25 bitrate=N/A speed=7.53x    frame=28317 fps=181 q=-0.0 size=N/A time=00:19:41.05 bitrate=N/A speed=7.53x    frame=28410 fps=181 q=-0.0 size=N/A time=00:19:44.93 bitrate=N/A speed=7.53x    frame=28498 fps=181 q=-0.0 size=N/A time=00:19:48.60 bitrate=N/A speed=7.53x    frame=28607 fps=181 q=-0.0 size=N/A time=00:19:53.15 bitrate=N/A speed=7.53x    frame=28709 fps=181 q=-0.0 size=N/A time=00:19:57.40 bitrate=N/A speed=7.54x    frame=28807 fps=181 q=-0.0 size=N/A time=00:20:01.49 bitrate=N/A speed=7.54x    frame=28906 fps=181 q=-0.0 size=N/A time=00:20:05.62 bitrate=N/A speed=7.54x    frame=29003 fps=181 q=-0.0 size=N/A time=00:20:09.66 bitrate=N/A speed=7.54x    frame=29092 fps=181 q=-0.0 size=N/A time=00:20:13.37 bitrate=N/A speed=7.54x    frame=29203 fps=181 q=-0.0 size=N/A time=00:20:18.00 bitrate=N/A speed=7.54x    frame=29299 fps=181 q=-0.0 size=N/A time=00:20:22.01 bitrate=N/A speed=7.55x    frame=29395 fps=181 q=-0.0 size=N/A time=00:20:26.01 bitrate=N/A speed=7.55x    frame=29493 fps=181 q=-0.0 size=N/A time=00:20:30.10 bitrate=N/A speed=7.55x    frame=29592 fps=181 q=-0.0 size=N/A time=00:20:34.23 bitrate=N/A speed=7.55x    frame=29688 fps=181 q=-0.0 size=N/A time=00:20:38.23 bitrate=N/A speed=7.55x    frame=29786 fps=181 q=-0.0 size=N/A time=00:20:42.32 bitrate=N/A speed=7.55x    frame=29880 fps=181 q=-0.0 size=N/A time=00:20:46.24 bitrate=N/A speed=7.55x    frame=29972 fps=181 q=-0.0 size=N/A time=00:20:50.08 bitrate=N/A speed=7.55x    frame=30062 fps=181 q=-0.0 size=N/A time=00:20:53.83 bitrate=N/A speed=7.55x    frame=30167 fps=181 q=-0.0 size=N/A time=00:20:58.21 bitrate=N/A speed=7.55x    frame=30264 fps=181 q=-0.0 size=N/A time=00:21:02.26 bitrate=N/A speed=7.55x    frame=30367 fps=181 q=-0.0 size=N/A time=00:21:06.55 bitrate=N/A speed=7.56x    frame=30467 fps=181 q=-0.0 size=N/A time=00:21:10.72 bitrate=N/A speed=7.56x    frame=30551 fps=181 q=-0.0 size=N/A time=00:21:14.23 bitrate=N/A speed=7.56x    frame=30659 fps=181 q=-0.0 size=N/A time=00:21:18.73 bitrate=N/A speed=7.56x    frame=30757 fps=181 q=-0.0 size=N/A time=00:21:22.82 bitrate=N/A speed=7.56x    frame=30858 fps=181 q=-0.0 size=N/A time=00:21:27.03 bitrate=N/A speed=7.56x    frame=30958 fps=181 q=-0.0 size=N/A time=00:21:31.20 bitrate=N/A speed=7.56x    frame=31064 fps=181 q=-0.0 size=N/A time=00:21:35.62 bitrate=N/A speed=7.57x    frame=31162 fps=181 q=-0.0 size=N/A time=00:21:39.71 bitrate=N/A speed=7.57x    frame=31262 fps=181 q=-0.0 size=N/A time=00:21:43.88 bitrate=N/A speed=7.57x    frame=31363 fps=181 q=-0.0 size=N/A time=00:21:48.09 bitrate=N/A speed=7.57x    frame=31461 fps=182 q=-0.0 size=N/A time=00:21:52.18 bitrate=N/A speed=7.57x    frame=31554 fps=182 q=-0.0 size=N/A time=00:21:56.06 bitrate=N/A speed=7.57x    frame=31658 fps=182 q=-0.0 size=N/A time=00:22:00.40 bitrate=N/A speed=7.57x    frame=31754 fps=182 q=-0.0 size=N/A time=00:22:04.40 bitrate=N/A speed=7.57x    frame=31853 fps=182 q=-0.0 size=N/A time=00:22:08.53 bitrate=N/A speed=7.58x    frame=31951 fps=182 q=-0.0 size=N/A time=00:22:12.62 bitrate=N/A speed=7.58x    frame=32045 fps=182 q=-0.0 size=N/A time=00:22:16.54 bitrate=N/A speed=7.58x    frame=32144 fps=182 q=-0.0 size=N/A time=00:22:20.67 bitrate=N/A speed=7.58x    frame=32235 fps=182 q=-0.0 size=N/A time=00:22:24.46 bitrate=N/A speed=7.58x    frame=32337 fps=182 q=-0.0 size=N/A time=00:22:28.72 bitrate=N/A speed=7.58x    frame=32432 fps=182 q=-0.0 size=N/A time=00:22:32.68 bitrate=N/A speed=7.58x    frame=32525 fps=182 q=-0.0 size=N/A time=00:22:36.56 bitrate=N/A speed=7.58x    frame=32620 fps=182 q=-0.0 size=N/A time=00:22:40.52 bitrate=N/A speed=7.58x    frame=32713 fps=182 q=-0.0 size=N/A time=00:22:44.40 bitrate=N/A speed=7.58x    frame=32808 fps=182 q=-0.0 size=N/A time=00:22:48.36 bitrate=N/A speed=7.58x    frame=32907 fps=182 q=-0.0 size=N/A time=00:22:52.49 bitrate=N/A speed=7.58x    frame=33003 fps=182 q=-0.0 size=N/A time=00:22:56.50 bitrate=N/A speed=7.58x    frame=33104 fps=182 q=-0.0 size=N/A time=00:23:00.71 bitrate=N/A speed=7.58x    frame=33193 fps=182 q=-0.0 size=N/A time=00:23:04.42 bitrate=N/A speed=7.58x    frame=33292 fps=182 q=-0.0 size=N/A time=00:23:08.55 bitrate=N/A speed=7.58x    frame=33394 fps=182 q=-0.0 size=N/A time=00:23:12.80 bitrate=N/A speed=7.58x    frame=33500 fps=182 q=-0.0 size=N/A time=00:23:17.22 bitrate=N/A speed=7.59x    frame=33599 fps=182 q=-0.0 size=N/A time=00:23:21.35 bitrate=N/A speed=7.59x    frame=33695 fps=182 q=-0.0 size=N/A time=00:23:25.36 bitrate=N/A speed=7.59x    frame=33795 fps=182 q=-0.0 size=N/A time=00:23:29.53 bitrate=N/A speed=7.59x    frame=33895 fps=182 q=-0.0 size=N/A time=00:23:33.70 bitrate=N/A speed=7.59x    frame=33987 fps=182 q=-0.0 size=N/A time=00:23:37.54 bitrate=N/A speed=7.59x    frame=34098 fps=182 q=-0.0 size=N/A time=00:23:42.17 bitrate=N/A speed= 7.6x    frame=34198 fps=182 q=-0.0 size=N/A time=00:23:46.34 bitrate=N/A speed= 7.6x    frame=34300 fps=182 q=-0.0 size=N/A time=00:23:50.59 bitrate=N/A speed= 7.6x    frame=34400 fps=182 q=-0.0 size=N/A time=00:23:54.76 bitrate=N/A speed= 7.6x    [Parsed_ssim_10 @ 0000024519688500] SSIM Y:0.992954 (21.520526) U:0.993553 (21.906737) V:0.994000 (22.218704) All:0.993228 (21.692986)
[out#0/null @ 000002450e599080] video:14805KiB audio:269464KiB subtitle:0KiB other streams:0KiB global headers:0KiB muxing overhead: unknown
frame=34456 fps=182 q=-0.0 Lsize=N/A time=00:23:57.10 bitrate=N/A speed= 7.6x    
